<svg id="visual" viewBox="0 0 1920 200" width="1920" height="200" xmlns="http://www.w3.org/2000/svg" xmlns:xlink="http://www.w3.org/1999/xlink" version="1.1"><path d="M0 54L40 53.7C80 53.3 160 52.7 240 67.3C320 82 400 112 480 129.7C560 147.3 640 152.7 720 133.8C800 115 880 72 960 59C1040 46 1120 63 1200 82.3C1280 101.7 1360 123.3 1440 131.2C1520 139 1600 133 1680 115.3C1760 97.7 1840 68.3 1880 53.7L1920 39L1920 0L1880 0C1840 0 1760 0 1680 0C1600 0 1520 0 1440 0C1360 0 1280 0 1200 0C1120 0 1040 0 960 0C880 0 800 0 720 0C640 0 560 0 480 0C400 0 320 0 240 0C160 0 80 0 40 0L0 0Z" fill="#ffe8b4" stroke-linecap="round" stroke-linejoin="miter"></path></svg>